<svg xmlns="http://www.w3.org/2000/svg" viewBox="0 0 176 176">
  <path fill="#fdc400" d="M85.26 5a80.26 80.26 0 1 0 80.26 80.26A80.35 80.35 0 0 0 85.26 5Zm0 157.63a77.38 77.38 0 1 1 77.37-77.37 77.46 77.46 0 0 1-77.37 77.37Z"/>
  <path fill="#e30613" d="M87.9 15.39a74.74 74.74 0 1 0 74.73 74.74A74.83 74.83 0 0 0 87.9 15.39Zm0 146.35a71.62 71.62 0 1 1 71.61-71.61 71.7 71.7 0 0 1-71.61 71.61Z"/>
  <path fill="#52ae32" d="M86.64 137.14a51.09 51.09 0 0 1-49.89-61.88 50.4 50.4 0 0 1 38.77-39 51 51 0 1 1 11.12 100.88"/>
  <path fill="#fff" d="M86.68 38.2a47.91 47.91 0 1 1-47.93 47.85A47.91 47.91 0 0 1 86.68 38.2"/>
  <path fill="#52ae32" d="M86.6 42.48h-.36a43.22 43.22 0 0 0-8.42.9A42.05 42.05 0 0 0 56.53 54.6C45.72 65.25 41.4 78.18 43.64 93.19a41.25 41.25 0 0 0 10.83 22.34c8.65 9.33 19.43 14 32.2 14.24V99.31c0-.14 0-.65-.06-.43a8.45 8.45 0 0 1-1.37 2.81A7.73 7.73 0 0 1 72 99.13a16 16 0 0 1-.65-4.85V77.73a18.71 18.71 0 0 1 .39-3.88 7.5 7.5 0 0 1 3.93-5.5 8.52 8.52 0 0 1 4.51-.68A6.74 6.74 0 0 1 85 70a10.34 10.34 0 0 1 1.66 3V42.46Zm14.21 42.64c1.77 5.81 3.71 12.25 5.46 18.07 0 .13.07.27.12.45H100c-1.11-3.82-2.67-9.1-3.77-12.86l-.87-2.91h-.09v15.76h-5.8V68.3h5.8v14.36a.75.75 0 0 0 .21-.44c1.33-4.42 2.82-9.22 4.17-13.73h6.13Zm5.88-16.76v25.12a23.73 23.73 0 0 0 .37 4.45c.73 3.89 3.36 6.69 8.1 6.45a6.45 6.45 0 0 0 5.27-3.14 12.54 12.54 0 0 0 1.57-6.41V68.34h-5.79a.07.07 0 0 0-.06.07v27.2c0 .62 0 1.24-.08 1.85a1.63 1.63 0 0 1-2.3 1.54 1.17 1.17 0 0 1-.83-.89 5.76 5.76 0 0 1-.16-1.37V68.33Z"/>
  <path fill="#52ae32" d="M77.5 85.66V74.83a6.22 6.22 0 0 1 .19-1.61 1 1 0 0 1 .64-.71 2.39 2.39 0 0 1 2 0 1.07 1.07 0 0 1 .59.73 6 6 0 0 1 .18 1.46v21.94a8.7 8.7 0 0 1-.1 1.41 1.31 1.31 0 0 1-1.24 1.09c-1.44 0-2-.27-2.16-1.47a7.27 7.27 0 0 1-.07-1.14V85.66"/>
  <path fill="#fff" d="M65 84.08A5.15 5.15 0 0 1 68.56 86a6.18 6.18 0 0 1 1.28 3.48 51.41 51.41 0 0 1-.09 8.86 5.59 5.59 0 0 1-2 4.06 6.25 6.25 0 0 1-3.93 1.23h-9.39c-.26 0-.4-.06-.36-.34a1.92 1.92 0 0 0 0-.24V69c0-.6 0-.6.62-.6h8.83a9.44 9.44 0 0 1 2.64.31c2.05.59 2.93 2.23 3.23 4.37a7.53 7.53 0 0 1 .07.83 31.65 31.65 0 0 1-.24 7.47 3.28 3.28 0 0 1-3 2.62c-.38 0-.75.07-1.12.12"/>
  <path fill="#52ae32" d="M63.7 97.72a.57.57 0 0 1 0 .22 1.34 1.34 0 0 1-1.17.79h-2.32V87.42h1.84a1.63 1.63 0 0 1 1.79 1.67Zm-1.95-24.79c1.43 0 2 .5 2.1 1.76v6.1c0 1.36-.74 1.85-2.19 1.85h-1.45v-9.71Z"/>
  <path fill="#00a089" d="M83.46 11.55A73.41 73.41 0 1 0 156.87 85a73.49 73.49 0 0 0-73.41-73.45Zm0 143.73A70.32 70.32 0 1 1 153.78 85a70.4 70.4 0 0 1-70.32 70.28Z"/>
  <path fill="#00803b" d="M82.36 27.43a62.91 62.91 0 1 0 62.91 62.91 63 63 0 0 0-62.91-62.91Zm0 123a60.05 60.05 0 1 1 60.05-60 60.12 60.12 0 0 1-60.05 59.96Z"/>
  <path fill="#1961ac" d="M88.71 23.68a60.68 60.68 0 1 0 60.68 60.68 60.75 60.75 0 0 0-60.68-60.68Zm0 118.27a57.59 57.59 0 1 1 57.59-57.59A57.65 57.65 0 0 1 88.71 142Z"/>
  <path fill="#f18700" d="M83.64 27a60.23 60.23 0 1 0 60.23 60.23A60.3 60.3 0 0 0 83.64 27Zm0 117.51a57.28 57.28 0 1 1 57.28-57.28 57.34 57.34 0 0 1-57.28 57.3Z"/>
</svg>
